<svg width="30" height="30" viewBox="0 0 30 30" fill="none" xmlns="http://www.w3.org/2000/svg">
<circle opacity="0.1" cx="15" cy="15" r="15" fill="#3DD9B3"/>
<path d="M13.5 16.5L16.5 13.5M11 11C12 10 13.5 9.5 15 9.5C16.5 9.5 18 10 19 11C20 12 20.5 13.5 20.5 15C20.5 16.5 20 18 19 19L17 21C16 22 14.5 22.5 13 22.5C11.5 22.5 10 22 9 21M19 19C20 18 21 16.5 21 15C21 13.5 20.5 12 19.5 11L17.5 9C16.5 8 15 7.5 13.5 7.5C12 7.5 10.5 8 9.5 9" stroke="#3DD9B3" stroke-width="2" stroke-linecap="round" stroke-linejoin="round"/>
</svg>
